<?xml version="1.0" standalone="no"?>
<!DOCTYPE svg PUBLIC "-//W3C//DTD SVG 20010904//EN"
 "http://www.w3.org/TR/2001/REC-SVG-20010904/DTD/svg10.dtd">
<svg version="1.0" xmlns="http://www.w3.org/2000/svg"
 width="1024.000000pt" height="412.000000pt" viewBox="0 0 1024.000000 412.000000"
 preserveAspectRatio="xMidYMid meet">

<g transform="translate(0.000000,412.000000) scale(0.100000,-0.100000)"
fill="#000000" stroke="none">
<path d="M1388 3346 c-104 -38 -172 -101 -211 -196 l-22 -55 0 -1030 0 -1030
26 -56 c37 -79 90 -133 167 -171 l67 -33 644 -3 c625 -3 647 -2 710 18 112 34
184 102 229 214 15 37 17 135 20 1026 2 684 0 1005 -8 1049 -20 116 -78 196
-177 247 l-58 29 -675 2 c-538 2 -682 0 -712 -11z m426 -201 c10 -14 31 -35
49 -45 29 -18 51 -20 220 -20 136 0 197 4 220 14 36 15 67 55 76 99 l6 29 174
-2 c118 0 184 -5 205 -14 42 -17 92 -77 105 -123 16 -58 15 -1973 -1 -2026
-19 -64 -82 -122 -146 -136 -36 -7 -247 -11 -646 -11 -670 0 -666 0 -729 69
-20 22 -41 58 -47 80 -7 27 -9 350 -8 1028 3 965 3 989 23 1027 11 22 37 54
58 70 l39 31 186 5 187 5 6 -27 c4 -15 14 -39 23 -53z"/>
<path d="M1540 2460 l0 -210 210 0 210 0 0 210 0 210 -210 0 -210 0 0 -210z
m320 0 l0 -110 -110 0 -110 0 0 110 0 110 110 0 110 0 0 -110z"/>
<path d="M2067 2663 c-2 -5 -4 -28 -3 -53 l1 -45 48 -3 47 -3 0 55 0 56 -44 0
c-25 0 -47 -3 -49 -7z"/>
<path d="M2260 2460 l0 -210 205 0 205 0 0 210 0 210 -205 0 -205 0 0 -210z
m310 0 l0 -110 -105 0 -105 0 0 110 0 110 105 0 105 0 0 -110z"/>
<path d="M2060 2355 l0 -105 50 0 50 0 0 105 0 105 -50 0 -50 0 0 -105z"/>
<path d="M1540 2105 l0 -45 110 0 110 0 0 45 0 45 -110 0 -110 0 0 -45z"/>
<path d="M1860 2045 l0 -105 50 0 50 0 0 61 0 61 50 -4 50 -3 0 48 0 47 -100
0 -100 0 0 -105z"/>
<path d="M2161 2053 l2 -98 -51 -3 -50 -3 0 -49 -1 -50 50 0 49 0 0 -55 0 -55
-51 0 -51 0 4 -160 3 -160 103 0 102 0 0 50 0 50 -55 0 -55 0 0 111 0 110 53
-3 52 -3 3 -47 3 -48 50 0 49 0 0 -49 0 -48 58 -6 c31 -3 76 -3 100 -1 l42 4
0 -60 0 -60 50 0 50 0 0 105 0 105 -100 0 -100 0 0 55 0 55 -100 0 -100 0 0
55 0 55 50 0 50 0 0 45 0 45 100 0 100 0 0 61 0 61 50 -4 50 -3 0 48 0 47
-100 0 -100 0 -1 -67 c-1 -85 -4 -104 -21 -114 -20 -13 -28 -11 -22 6 4 9 0
15 -10 15 -10 0 -13 -5 -9 -17 6 -15 5 -16 -8 -3 -9 8 -14 24 -11 38 3 17 1
23 -7 18 -6 -4 -11 -23 -11 -42 l0 -34 -56 0 -55 0 3 98 3 97 -53 3 -53 3 2
-98z"/>
<path d="M1660 1923 c0 -27 2 -28 50 -28 48 0 50 1 50 28 0 26 -2 27 -50 27
-48 0 -50 -1 -50 -27z"/>
<path d="M1540 1625 l0 -205 210 0 210 0 0 205 0 205 -210 0 -210 0 0 -205z
m320 0 l0 -106 -106 3 -106 3 -1 103 -2 102 108 0 107 0 0 -105z"/>
<path d="M2570 1782 l0 -47 50 0 50 0 0 48 0 47 -50 0 -50 0 0 -48z"/>
<path d="M8983 3010 c-28 -12 -43 -40 -43 -84 0 -80 118 -107 155 -35 22 42
18 67 -14 100 -30 29 -58 35 -98 19z"/>
<path d="M3577 2593 l3 -418 75 -1 75 0 0 418 0 418 -77 0 -78 0 2 -417z"/>
<path d="M4001 2948 c-27 -35 -96 -124 -155 -198 -58 -74 -106 -142 -106 -150
0 -9 72 -108 159 -220 l159 -205 101 -3 c56 -2 101 0 101 3 0 6 -135 180 -262
337 l-78 97 151 188 c83 103 156 194 162 201 7 9 -11 12 -87 12 l-96 0 -49
-62z"/>
<path d="M5520 2590 l0 -420 74 1 74 1 4 192 c3 186 4 194 28 229 53 78 164
75 207 -6 15 -27 18 -64 20 -222 l3 -190 75 -3 75 -3 0 212 c0 132 -4 226 -12
250 -13 45 -68 113 -107 133 -78 41 -187 27 -248 -31 -20 -18 -37 -33 -39 -33
-2 0 -4 70 -4 155 l0 155 -75 0 -75 0 0 -420z"/>
<path d="M8672 2860 c2 -83 1 -150 -1 -150 -2 0 -19 13 -37 30 -66 58 -171 64
-271 14 -104 -50 -159 -162 -151 -303 10 -172 106 -278 260 -289 59 -4 75 -1
123 23 31 15 59 33 62 41 10 26 23 14 23 -21 l0 -36 75 2 75 2 0 418 0 419
-81 0 -80 0 3 -150z m-63 -237 c46 -35 66 -81 66 -155 0 -75 -16 -105 -76
-146 -28 -20 -43 -23 -87 -20 -91 8 -145 71 -145 172 0 75 39 139 103 165 36
15 108 7 139 -16z"/>
<path d="M4522 2923 l-51 -68 71 -3 71 -3 58 63 c32 35 58 66 59 71 0 4 -35 7
-78 7 l-78 0 -52 -67z"/>
<path d="M4462 2775 c-71 -20 -137 -67 -173 -123 -38 -60 -49 -102 -49 -187 0
-182 143 -313 330 -303 121 7 211 60 268 156 22 39 27 61 30 139 4 89 3 97
-27 158 -35 70 -88 121 -156 150 -57 23 -159 28 -223 10z m173 -148 c79 -44
107 -152 62 -238 -59 -111 -213 -118 -278 -12 -34 54 -33 143 0 197 44 71 141
95 216 53z"/>
<path d="M5105 2781 c-52 -14 -113 -50 -134 -79 -29 -41 -43 -110 -30 -155 21
-78 77 -115 200 -136 97 -17 106 -20 123 -37 43 -42 -4 -104 -80 -104 -31 0
-51 7 -73 26 -17 14 -31 32 -31 39 0 8 -4 16 -8 19 -9 5 -141 -10 -148 -17 -8
-8 25 -80 49 -105 42 -45 96 -65 188 -70 63 -3 100 0 136 12 100 33 156 131
134 230 -19 81 -83 119 -241 146 -71 12 -94 24 -104 56 -11 35 22 65 77 71 46
5 49 4 88 -36 l40 -43 64 7 c36 4 65 12 65 17 0 15 -31 72 -54 96 -35 40 -93
63 -164 67 -37 2 -80 1 -97 -4z"/>
<path d="M6447 2776 c-20 -7 -53 -26 -72 -40 l-35 -27 0 35 0 36 -75 0 -75 0
0 -420 0 -420 75 0 75 0 0 150 0 151 38 -29 c52 -41 103 -55 181 -50 113 8
189 61 239 168 22 46 27 69 27 140 0 93 -24 163 -79 227 -61 72 -212 112 -299
79z m129 -145 c65 -30 89 -72 89 -158 0 -80 -15 -110 -75 -150 -60 -41 -163
-25 -208 32 -56 71 -53 171 5 236 53 59 118 72 189 40z"/>
<path d="M7115 2781 c-91 -25 -169 -91 -206 -174 -35 -77 -33 -202 3 -272 56
-107 150 -165 278 -173 98 -5 174 22 237 85 25 24 43 49 41 55 -2 6 -32 21
-66 33 -61 22 -61 22 -79 2 -63 -70 -213 -56 -263 25 -42 69 -46 68 200 68
l220 0 0 53 c0 170 -108 293 -267 302 -38 2 -81 0 -98 -4z m141 -127 c31 -15
74 -80 74 -112 0 -9 -40 -12 -145 -12 -161 0 -159 -1 -122 64 39 69 121 94
193 60z"/>
<path d="M7815 2775 c-22 -9 -52 -27 -67 -42 l-28 -27 0 38 0 37 -77 -3 -78
-3 0 -300 0 -300 78 -2 77 -2 0 185 c0 201 8 239 54 269 34 23 95 29 126 13
13 -7 35 -29 47 -47 22 -32 23 -43 23 -228 l0 -194 78 3 77 3 3 184 c3 211 -6
279 -46 336 -54 78 -176 114 -267 80z"/>
<path d="M8950 2475 l0 -305 75 1 75 1 0 304 0 304 -75 0 -75 0 0 -305z"/>
<path d="M3577 1943 c-1 -1 -1 -188 1 -417 l2 -416 75 0 75 0 2 284 3 284 106
-231 106 -232 59 -3 60 -3 109 240 110 240 3 -289 2 -290 75 0 75 0 0 418 0
418 -92 -3 c-50 -1 -93 -5 -95 -7 -4 -4 -172 -361 -218 -464 l-28 -62 -125
269 -125 270 -89 -2 c-49 -1 -90 -3 -91 -4z"/>
<path d="M4755 1717 c-171 -44 -270 -220 -220 -392 41 -144 154 -225 311 -225
95 0 159 24 215 80 27 27 49 53 49 57 0 5 -30 19 -66 32 l-65 23 -22 -20 c-47
-44 -135 -55 -197 -24 -38 19 -80 74 -80 105 0 20 4 20 220 13 l220 -6 0 39
c0 55 -19 139 -41 182 -54 107 -198 168 -324 136z m130 -121 c37 -16 75 -68
75 -103 0 -23 -1 -23 -141 -23 l-140 0 7 23 c16 52 37 80 77 98 51 22 77 24
122 5z"/>
<path d="M5468 1716 c-26 -7 -63 -25 -82 -40 l-36 -27 0 30 0 31 -80 0 -80 0
0 -300 0 -300 80 0 80 0 0 186 c0 149 3 193 16 219 43 92 172 94 216 5 15 -30
18 -64 18 -222 l0 -188 78 0 77 0 -5 233 -5 234 -30 48 c-50 80 -151 118 -247
91z"/>
<path d="M5840 1496 c0 -167 3 -223 15 -257 30 -85 108 -138 203 -139 65 0
114 20 153 61 l29 31 0 -41 0 -41 75 0 75 0 0 300 0 300 -80 0 -80 0 0 -190
c0 -147 -3 -197 -14 -219 -40 -76 -155 -83 -203 -12 -15 22 -18 55 -21 224
l-4 197 -74 0 -74 0 0 -214z"/>
</g>
</svg>
